<?xml version="1.0" standalone="no"?><!DOCTYPE svg PUBLIC "-//W3C//DTD SVG 1.1//EN" "http://www.w3.org/Graphics/SVG/1.1/DTD/svg11.dtd"><svg t="1542109714760" class="icon" style="" viewBox="0 0 1365 1024" version="1.1" xmlns="http://www.w3.org/2000/svg" p-id="2193" xmlns:xlink="http://www.w3.org/1999/xlink" width="170.625" height="128"><defs><style type="text/css"></style></defs><path d="M682.666667 42.666667c284.245333 0 535.04 182.613333 637.269333 454.314666l5.632 15.018667-5.632 15.018667C1217.706667 798.72 966.997333 981.333333 682.666667 981.333333c-284.16 0-535.04-182.698667-637.269334-454.314666L39.765333 512l5.632-15.018667C147.541333 225.365333 398.592 42.666667 682.666667 42.666667z m0 85.333333C440.149333 128 224.426667 281.258667 131.157333 512 224.426667 742.741333 440.149333 896 682.666667 896c242.688 0 458.154667-153.173333 551.509333-384C1140.906667 281.173333 925.269333 128 682.666667 128z m0 90.112c156.330667 0 282.453333 132.181333 282.453333 293.888S839.082667 805.888 682.666667 805.888 400.213333 673.706667 400.213333 512 526.250667 218.112 682.666667 218.112z m0 85.333333c-108.288 0-197.12 93.013333-197.12 208.554667C485.546667 627.456 574.293333 720.554667 682.666667 720.554667c108.288 0 197.12-93.013333 197.12-208.554667 0-115.456-88.832-208.554667-197.12-208.554667z" p-id="2194"></path></svg>